PathFileType	4	(X/Y/Z)	 s08c0302.trc
DataRate	CameraRate	NumFrames	NumMarkers	Units	OrigDataRate	OrigDataStartFrame	OrigNumFrames
200	200	4	50	mm	200	1251	2000
Frame#	Time	racr			lacr			c7			jug			rlel			rdr			llel			ldr			s2			lic			ric			lasi			rasi			rpsi			lpsi			rgt			lgt			rth1			rth2			rth3			rth4			rlfc			rmfc			rsh1			rsh2			rsh3			rsh4			rlmal			rmmal			rcal			rtoe			rmt5			lth1			lth2			lth4			lth3			llfc			lmfc			llmal			lmmal			lcal			lmt5			lsh1			lsh2			lsh3			lsh4			ltoe			SBIKE			LBIKE			RBIKE			
		X1	Y1	Z1	X2	Y2	Z2	X3	Y3	Z3	X4	Y4	Z4	X5	Y5	Z5	X6	Y6	Z6	X7	Y7	Z7	X8	Y8	Z8	X9	Y9	Z9	X10	Y10	Z10	X11	Y11	Z11	X12	Y12	Z12	X13	Y13	Z13	X14	Y14	Z14	X15	Y15	Z15	X16	Y16	Z16	X17	Y17	Z17	X18	Y18	Z18	X19	Y19	Z19	X20	Y20	Z20	X21	Y21	Z21	X22	Y22	Z22	X23	Y23	Z23	X24	Y24	Z24	X25	Y25	Z25	X26	Y26	Z26	X27	Y27	Z27	X28	Y28	Z28	X29	Y29	Z29	X30	Y30	Z30	X31	Y31	Z31	X32	Y32	Z32	X33	Y33	Z33	X34	Y34	Z34	X35	Y35	Z35	X36	Y36	Z36	X37	Y37	Z37	X38	Y38	Z38	X39	Y39	Z39	X40	Y40	Z40	X41	Y41	Z41	X42	Y42	Z42	X43	Y43	Z43	X44	Y44	Z44	X45	Y45	Z45	X46	Y46	Z46	X47	Y47	Z47	X48	Y48	Z48	X49	Y49	Z49	X50	Y50	Z50	
1251	6.2550	875.347786	1379.263965	-71.662005	841.005371	1411.067310	-405.119891	835.905222	1450.096170	-220.065856	796.751196	1289.419840	-231.678468	741.222772	1156.265834	74.794636	802.542983	895.636318	-30.834237	737.334889	1150.385292	-491.765235	813.630067	888.011466	-401.655958	261.658835	1266.943829	-232.015626	429.032182	1270.241587	-368.665378	424.348923	1214.395168	-66.933228	441.143230	1208.439254	-336.065038	433.081942	1156.054034	-104.409826	300.090803	1289.974394	-168.801441	300.007324	1313.164005	-260.157602	305.081059	1113.899034	-67.175061	372.074477	1164.503593	-426.507031	333.379778	954.269551	-51.893251	364.918181	871.022013	-51.557684	351.645836	785.613939	-60.932427	401.846441	874.821619	-56.152179	372.289855	671.379541	-74.946807	352.378338	657.811501	-180.863472	314.740325	552.717487	-38.198262	326.197759	464.846811	-50.950723	292.334075	385.065672	-56.164721	357.114041	463.243354	-78.730881	266.346196	266.457754	-59.288854	291.826616	283.342787	-146.631459	192.271986	258.841937	-109.491217	474.671878	160.816756	-92.149096	375.425667	156.150708	-31.769243	453.681963	1051.388654	-421.124588	523.863224	1001.198623	-406.445630	547.728074	1022.586536	-388.199115	560.805604	920.123755	-402.597973	594.441412	803.851226	-374.700896	574.562385	779.991493	-271.024424	223.997885	611.160432	-394.998279	255.237100	600.210309	-309.966630	168.985057	648.089131	-355.017028	238.240934	444.483505	-411.518719	489.429462	738.578791	-399.905462	423.964112	686.271152	-390.317953	337.666080	665.296083	-393.021901	434.668924	665.480641	-355.533041	305.962441	393.751653	-339.493706	-142.011228	938.062518	-218.873704	16.699039	83.912273	-424.242017	9.809139	80.245971	-26.302019	
1252	6.2600	876.601795	1384.154349	-76.149904	839.091330	1413.208066	-409.051608	835.267212	1453.420554	-224.724492	797.589941	1292.309062	-234.820861	746.509984	1159.184098	70.912680	803.117507	895.169767	-32.160109	736.559916	1150.620080	-491.868539	813.825796	888.118555	-401.320064	260.963510	1265.610453	-225.660698	426.818441	1271.130995	-366.577013	429.233395	1211.483593	-66.157445	440.325181	1209.777784	-334.445047	436.188213	1152.983909	-103.942359	301.766992	1286.822299	-163.920503	299.234430	1312.170624	-253.323609	307.861477	1111.027038	-65.239137	369.920713	1165.752321	-425.273821	331.452381	952.433597	-50.531400	360.602804	868.272269	-50.507635	344.162331	783.201223	-59.346671	397.073698	871.170468	-56.501820	362.253568	668.880944	-74.405469	341.293472	654.845262	-180.248997	304.526793	550.043904	-37.919216	316.798090	462.236454	-50.443415	283.746223	382.421559	-55.495011	347.104311	461.210296	-78.072468	258.606694	263.836045	-58.782255	283.622967	279.796159	-146.258404	185.188948	257.553734	-109.071970	465.375863	153.290477	-92.503962	366.380161	151.044460	-31.888755	453.629549	1053.810576	-419.877103	525.072225	1005.321328	-405.985004	548.476299	1027.243025	-387.853055	564.037876	925.250458	-402.537808	600.523388	810.049435	-374.962229	581.461434	786.037745	-268.701742	231.591097	616.111899	-393.947718	262.888851	605.665608	-309.068293	175.718959	652.483611	-354.221570	247.818226	449.915418	-411.220909	496.246919	744.958984	-399.526880	430.259473	690.811384	-387.226271	344.858335	670.923373	-392.360157	442.242715	670.589334	-355.866873	316.887936	400.555678	-339.824900	-142.028782	938.103040	-218.740157	16.710675	83.929256	-424.215566	9.851083	80.263123	-26.257181	
1253	6.2650	877.505426	1389.026909	-80.765186	836.758433	1415.282350	-412.843050	834.408966	1456.638044	-229.529113	797.876505	1295.186107	-237.941113	751.148846	1162.087500	66.804874	804.102013	894.172677	-33.322484	735.618628	1150.965423	-491.970490	814.115223	888.369281	-401.166744	261.632569	1263.403606	-220.353939	424.614641	1271.989713	-364.416501	434.084754	1209.102006	-65.024532	439.574740	1211.091169	-332.596765	439.396789	1149.681920	-103.495220	303.790667	1284.055707	-159.243685	299.347486	1309.952876	-248.157728	310.856948	1108.679438	-62.975492	368.058042	1167.050999	-423.034193	329.962599	951.091378	-49.072914	356.456575	866.178859	-49.250576	337.822431	781.545378	-56.837200	392.839693	867.874553	-56.113491	351.879104	666.865555	-74.637184	329.860804	653.021641	-179.743665	295.157483	548.845063	-36.023325	307.583030	460.572609	-49.402020	275.096077	380.503530	-54.710625	337.829361	459.847614	-77.205937	250.937175	261.925561	-58.207234	275.225675	276.712499	-146.057245	177.734884	258.015477	-107.762000	455.955774	146.381442	-92.755582	357.057394	146.493122	-31.917346	453.710981	1056.790462	-418.357622	526.375035	1009.876278	-405.358739	549.489910	1032.297815	-387.535333	567.234584	930.713245	-402.730189	606.539689	816.135722	-375.499406	588.731802	791.523319	-268.409616	239.382121	620.322207	-393.014509	270.821072	610.238417	-308.441776	182.510451	656.203957	-353.469867	257.891976	454.958766	-411.128097	503.272536	750.877399	-399.083551	437.406888	696.467755	-387.147341	352.160981	676.131519	-391.907563	449.829733	675.837925	-356.311302	327.741670	406.301257	-339.164229	-142.043651	938.134518	-218.617615	16.711447	83.978573	-424.195501	9.899707	80.277339	-26.269033	
1254	6.2700	878.106327	1393.707434	-85.281182	834.661386	1417.457350	-416.840560	833.419305	1459.832880	-234.144648	798.211528	1298.040874	-241.186323	755.763679	1164.675271	62.335986	804.901615	893.714777	-34.238460	734.477935	1151.304675	-492.078469	813.963541	887.907109	-400.064305	261.980213	1261.955220	-215.288624	422.461342	1272.792573	-362.227060	439.019503	1207.166309	-63.597168	439.004381	1212.424966	-330.697633	442.388628	1147.074137	-101.905795	305.864594	1281.835166	-153.895974	298.739670	1308.226290	-246.501797	313.830319	1106.659378	-60.564482	366.675636	1168.577817	-420.687167	328.444758	950.119612	-46.897103	352.571221	864.383381	-47.359506	331.235064	780.297993	-54.343561	389.146945	865.058656	-55.204617	342.423743	665.847872	-72.454250	319.243422	651.834350	-178.177689	284.732192	547.471732	-35.379329	298.426953	459.634713	-48.142415	266.560180	379.345865	-53.728431	328.818972	459.070725	-75.827763	243.420661	260.889483	-57.712602	268.116056	275.027425	-145.360225	170.792049	258.462341	-107.274450	446.448113	140.154264	-92.910133	347.557034	142.594129	-31.930845	454.107627	1060.162435	-416.674372	527.816395	1014.747133	-404.811154	550.703410	1037.539064	-387.318109	570.344032	936.496981	-403.215415	612.490810	822.051336	-376.239350	595.941937	797.122549	-268.840169	247.328498	623.844685	-392.254399	279.060375	614.301120	-308.004757	189.332955	659.044100	-352.804269	268.107802	459.396518	-410.881936	510.143771	756.626677	-399.255141	444.721627	701.627711	-387.281266	359.505313	680.853844	-391.733757	457.446539	680.649523	-356.825057	338.389366	411.304010	-338.766345	-142.081169	938.148153	-218.472171	16.715051	84.008898	-424.194632	9.900404	80.322397	-26.278361	
